<svg width="48" height="10" xmlns="http://www.w3.org/2000/svg">
    <path d="M3.827 1.045L1.833 6.659h3.988L3.827 1.045zM6.878 9.62l-.83-2.318H1.605L.775 9.62H0L3.506.08h.642l3.507 9.54h-.777zm6.862.08c-1.914 0-3.266-1.312-3.266-3.175V.08h.723v6.351c0 1.581 1.017 2.626 2.543 2.626 1.525 0 2.542-1.045 2.542-2.626V.08h.723v6.445c0 1.863-1.352 3.175-3.265 3.175m12.772-1.098A3.37 3.37 0 0 1 24.009 9.7a3.358 3.358 0 0 1-2.382-.977c-.87-.872-.883-1.716-.883-3.873s.014-3.001.883-3.872A3.358 3.358 0 0 1 24.01 0c1.673 0 2.957 1.098 3.252 2.787h-.723C26.258 1.473 25.294.643 24.01.643c-.682 0-1.324.254-1.806.737-.683.683-.736 1.42-.736 3.47 0 2.05.053 2.787.736 3.47a2.527 2.527 0 0 0 1.806.737c.75 0 1.486-.321 1.98-.924.415-.51.576-1.072.576-1.89v-.857H24.01v-.643h3.278v1.555c0 .99-.213 1.701-.775 2.304M34.215 9.7c-1.914 0-3.265-1.312-3.265-3.175V.08h.722v6.351c0 1.581 1.017 2.626 2.543 2.626 1.525 0 2.542-1.045 2.542-2.626V.08h.723v6.445c0 1.863-1.351 3.175-3.265 3.175M45.052.723h-2.81v3.86h2.81c1.218 0 2.101-.618 2.101-1.93 0-1.313-.883-1.93-2.1-1.93zM47.14 9.62l-2.274-4.395h-2.623V9.62h-.723V.08h3.627c1.552 0 2.73.897 2.73 2.56 0 1.42-.857 2.344-2.195 2.572l2.301 4.408h-.843z" fill="#FFF" fill-rule="evenodd"/>
</svg>