<svg width="105" height="44" version="1.1" xmlns="http://www.w3.org/2000/svg" xmlns:xlink="http://www.w3.org/1999/xlink" x="0px" y="0px"
	 viewBox="0 0 105 44" style="enable-background:new 0 0 105 44;" xml:space="preserve">
<style type="text/css">
	.st0{filter:url(#Adobe_OpacityMaskFilter);}
	.st1{fill:#FFFFFF;}
	.st2{mask:url(#b_1_);fill:#EDEFEF;}
	.st3{opacity:0.848;fill:#FFFFFF;enable-background:new    ;}
</style>
<defs>
	<filter id="Adobe_OpacityMaskFilter" filterUnits="userSpaceOnUse" x="0" y="0" width="40.5" height="43.8">
		<feColorMatrix  type="matrix" values="1 0 0 0 0  0 1 0 0 0  0 0 1 0 0  0 0 0 1 0"/>
	</filter>
</defs>
<mask maskUnits="userSpaceOnUse" x="0" y="0" width="40.5" height="43.8" id="b_1_">
	<g class="st0">
		<path id="a_1_" class="st1" d="M0,0h40.5v43.8H0V0z"/>
	</g>
</mask>
<path class="st2" d="M27.3,24.2l0.1,0.4l0,0.2c0.3,2.3,1.2,2.9,3.4,3.9c0,0,0,0,0,0l8,3.5l-18,10.3v-5.9c0-2.2,0.1-2.5,2-3.6
	c0.4-0.2,0.8-0.4,1.2-0.7l0.3-0.1c1.2-0.6,2.2-1.6,2.9-2.7c0,0,0.2-0.3,0.2-0.4c-0.1-0.1-0.3-0.2-0.4-0.3c-0.1-0.1-0.2-0.3-0.3-0.4
	c-0.6,1.2-1.6,2.2-2.8,2.9l-0.3,0.2c-0.4,0.2-0.8,0.5-1.2,0.7c-2.4,1.3-2.5,2.1-2.5,4.4v5.9L1.6,32l7.8-3.4l0.5-0.2
	c0.2-0.1,0.8-0.4,1.3-0.4c0.5,0,1.2,0,1.6,0.5c0.4,0.5,0.7,0.9,1.1,1.4c0.9,1.1,2,2,3.3,2.6c0,0,0,0,0,0c0.4,0.1,0.7,0.2,1.1,0.3
	c0.1-0.1,0.2-0.3,0.3-0.5c0.1-0.1,0.2-0.2,0.3-0.3c-0.6-0.1-1.2-0.3-1.7-0.5l0,0c-1-0.5-1.9-1.2-2.6-2c0,0-0.1-0.1-0.1-0.1
	c-0.1-0.1-0.1-0.2-0.2-0.3c-0.2-0.2-0.5-0.6-0.8-1.1c-0.3-0.3-0.6-0.5-1-0.7l0,0c-0.4-0.1-0.9-0.2-1.4-0.2c-0.8,0-1.7,0.4-1.7,0.5
	l-0.3,0.1l0,0L8.5,28c0,0,0,0,0,0l-6.8,3L19.8,2.2v12.2c0,2.1-0.2,2.6-2.1,3.6c-0.2,0.1-0.3,0.2-0.5,0.2L17,18.3
	c-0.1,0-0.1,0.1-0.2,0.1l0,0h0c-2.5,1.2-4.3,3.7-4.5,6.6c0.2,0,0.4,0.1,0.6,0.2c0.1,0,0.3,0.1,0.4,0.2c0-2.7,1.6-4.9,4-6.1l0,0
	c0,0,0,0,0,0c0.1-0.1,0.3-0.1,0.4-0.2c0.5-0.2,1-0.5,1.4-0.8c0.1,0,0.1-0.1,0.2-0.1c0.1-0.1,0.3-0.2,0.4-0.3
	c0.1-0.1,0.1-0.1,0.2-0.2c0.8-0.8,0.9-1.7,0.9-3.3V2.2l18.2,29.1l-8-3.5h0c-1.8-0.8-2.3-1.4-2.6-3.3c0,0,0-0.1,0-0.1
	c-0.5-3-2.7-5.4-5.7-6.3l-0.4-0.1c0,0.2-0.1,0.3-0.2,0.4c-0.1,0.1-0.2,0.3-0.3,0.4l0.4,0.1C24.8,19.5,26.9,21.6,27.3,24.2
	 M40.4,31.8L20.7,0.2C20.6,0.1,20.5,0,20.3,0c-0.2,0-0.3,0.1-0.4,0.2L0.1,31.7c-0.1,0.2-0.1,0.5,0.2,0.6c0,0,0,0,0,0l19.8,11.4
	c0.2,0.1,0.3,0.1,0.5,0l19.7-11.2c0.1-0.1,0.2-0.2,0.2-0.3C40.5,32.1,40.5,31.9,40.4,31.8"/>
<path class="st3" d="M54.1,14.9l-4,10.6H51l0.9-2.6H57l0.9,2.6h0.9l-4-10.6C54.9,14.9,54.1,14.9,54.1,14.9z M54.5,16l2.3,6.2h-4.5
	L54.5,16L54.5,16z M65.8,25.6c-2.2,0-3.7-1.5-3.7-3.5v-7.2h0.8v7c0,1.8,1.2,2.9,2.9,2.9c1.7,0,2.9-1.2,2.9-2.9v-7h0.8v7.2
	C69.5,24.1,68,25.6,65.8,25.6 M80.3,24.4c-0.7,0.8-1.8,1.2-2.8,1.2c-1,0-2-0.4-2.7-1.1c-1-1-1-1.9-1-4.3c0-2.4,0-3.3,1-4.3
	c0.7-0.7,1.7-1.1,2.7-1.1c1.9,0,3.4,1.2,3.7,3.1h-0.8c-0.3-1.5-1.4-2.4-2.9-2.4c-0.8,0-1.5,0.3-2.1,0.8c-0.8,0.8-0.8,1.6-0.8,3.9
	s0.1,3.1,0.8,3.9c0.5,0.5,1.3,0.8,2.1,0.8c0.9,0,1.7-0.4,2.3-1c0.5-0.6,0.7-1.2,0.7-2.1v-1h-2.9v-0.7h3.7v1.7
	C81.2,22.9,81,23.7,80.3,24.4 M89.1,25.6c-2.2,0-3.7-1.5-3.7-3.5v-7.2h0.8v7c0,1.8,1.2,2.9,2.9,2.9c1.7,0,2.9-1.2,2.9-2.9v-7h0.8
	v7.2C92.8,24.1,91.3,25.6,89.1,25.6 M101.4,15.6h-3.2v4.3h3.2c1.4,0,2.4-0.7,2.4-2.1S102.8,15.6,101.4,15.6L101.4,15.6z M103.8,25.5
	l-2.6-4.9h-3v4.9h-0.8V14.9h4.1c1.8,0,3.1,1,3.1,2.8c0,1.6-1,2.6-2.5,2.9l2.6,4.9C104.8,25.5,103.8,25.5,103.8,25.5z"/>
</svg>
