<svg width="24" height="16" xmlns="http://www.w3.org/2000/svg">
  <path d="M0 13.857l6.783-3.75H5.478C12.087 5.821 15.913 3.5 16.957 3.143 18.522 2.607 18.522 1 20.347 1c1.218 0 1.827.357 1.827 1.071l1.565 1.072h-1.565A10.584 10.584 0 0 0 20.87 4.75c-.522.804-.261 2.679-1.566 4.018-1.304 1.34-4.695 2.41-4.956 2.946-.261.536-.783.804-.261 1.607.348.536.87 1.161 1.565 1.875h1.305v.536h-2.61v-.536h.523c-1.392-.535-2.087-.982-2.087-1.339 0-.536.39-1.071-.261-1.34-.652-.267-2.609-1.606-3.913-1.338-.87.178-1.392.357-1.566.535L2.087 14.93l-.783-.268-.782.268.26-.804L0 13.857z" stroke="#FFF" fill="none" stroke-linecap="round" stroke-linejoin="round"/>
</svg>