<svg width="22" height="20" xmlns="http://www.w3.org/2000/svg">
    <path d="M11 5.724h2.862c.298 0 .39-.09.39-.38V3.91c0-.28-.098-.382-.374-.382-2.477-.002-3.287-.002-5.764 0-.27 0-.365.099-.365.366v1.414c0 .34.073.416.408.416H11zm-.012 13.245l-8.722.001c-.468 0-.87-.132-1.102-.565a1.215 1.215 0 0 1-.156-.552C.998 14.183 1 10.513 1 6.842c0-.652.496-1.113 1.203-1.117.875-.004 1.747 0 2.621 0 .32 0 .401-.084.401-.409l.001-2.267c.002-1.176.815-2.032 1.987-2.04 2.522-.013 5.045-.012 7.568 0 1.168.007 1.99.87 1.992 2.039v2.287c0 .308.082.39.397.39.873 0 1.746-.004 2.62 0 .618.003 1.063.344 1.187.904.018.087.021.18.021.271L21 17.736c0 .753-.455 1.222-1.21 1.231-.6.008-1.2.002-1.8.002h-7.002z" stroke="#FFF" fill="none" stroke-linecap="round" stroke-linejoin="round"/>
</svg>