<svg width="31" height="24" xmlns="http://www.w3.org/2000/svg">
    <g stroke="#FFF" fill="none" fill-rule="evenodd" stroke-linecap="round" stroke-linejoin="round">
        <path d="M20.228 12.763V10.83a2.8 2.8 0 0 0-.687-1.874c-.56-.653-1.273-1.015-2.142-1.045a46.386 46.386 0 0 0-1.558-.013"/>
        <path d="M11.62 12.763V10.83a2.8 2.8 0 0 1 .686-1.874c.56-.653 1.273-1.015 2.143-1.045.414-.014 1.02-.016 1.557-.013m4.153 4.919l-4.21 2.258-4.304-2.258m6.933-9.22c0-1.463-1.204-2.649-2.69-2.649-1.485 0-2.69 1.186-2.69 2.649 0 1.462 1.205 2.648 2.69 2.648 1.486 0 2.69-1.186 2.69-2.648zm11.65 17.166V18.83a2.8 2.8 0 0 0-.687-1.874c-.56-.653-1.273-1.015-2.142-1.045a46.386 46.386 0 0 0-1.558-.013"/>
        <path d="M21.62 20.763V18.83a2.8 2.8 0 0 1 .686-1.874c.56-.653 1.273-1.015 2.143-1.045.414-.014 1.02-.016 1.557-.013m4.153 4.919l-4.21 2.258-4.304-2.258m6.933-9.22c0-1.463-1.204-2.649-2.69-2.649-1.485 0-2.69 1.186-2.69 2.649 0 1.462 1.205 2.648 2.69 2.648 1.486 0 2.69-1.186 2.69-2.648zm-19.35 9.166V18.83a2.8 2.8 0 0 0-.687-1.874c-.56-.653-1.273-1.015-2.142-1.045a46.386 46.386 0 0 0-1.558-.013"/>
        <path d="M.62 20.763V18.83a2.8 2.8 0 0 1 .686-1.874c.56-.653 1.273-1.015 2.143-1.045.414-.014 1.02-.016 1.557-.013m4.153 4.919l-4.21 2.258-4.304-2.258m6.933-9.22c0-1.463-1.204-2.649-2.69-2.649-1.485 0-2.69 1.186-2.69 2.649 0 1.462 1.205 2.648 2.69 2.648 1.486 0 2.69-1.186 2.69-2.648z"/>
    </g>
</svg>