<svg width="31" height="30" xmlns="http://www.w3.org/2000/svg">
    <path d="M8 6.5l3.5 2c2-.333 3.333-.5 4-.5.667 0 2 .167 4 .5l4-1.5v4c1 .5 1.5 2.5 1.5 6s-2.333 5.167-7 5c.667.667 1 1.167 1 1.5v6c7.667-1.333 11.5-6.167 11.5-14.5 0-12.5-12-14-15-14S1 3 1 15c0 8 3.5 12.833 10.5 14.5v-3h-2c-1 0-2-1-2.5-1.5-.333-.333-1.333-1.5-3-3.5 1.667.333 2.667.667 3 1 .5.5 1 1.5 2 2s1.5.5 2.5 0c.667-.333 1.167-1.167 1.5-2.5-4.333-.333-6.5-2-6.5-5S7 12 8 11V6.5z" stroke="#FFF" fill="none" stroke-linecap="round" stroke-linejoin="round"/>
</svg>