<svg width="38" height="33" xmlns="http://www.w3.org/2000/svg">
    <g transform="translate(1 1)" fill="none" fill-rule="evenodd">
        <path d="M33.596 18l.97-.975a3.536 3.536 0 0 0-.004-4.996 3.513 3.513 0 0 0-4.98.012l-.582.588" stroke="#FFF" stroke-linecap="round" stroke-linejoin="round"/>
        <ellipse stroke="#FFF" cx="18" cy="20.5" rx="16" ry="10.5"/>
        <circle fill="#FFF" cx="12.5" cy="17.5" r="2.5"/>
        <circle fill="#FFF" cx="23.5" cy="17.5" r="2.5"/>
        <path stroke="#FFF" stroke-linecap="round" stroke-linejoin="round" d="M18 9.5L21 1l7 1.5"/>
        <circle stroke="#FFF" cx="31" cy="3" r="3"/>
        <path d="M12.5 24.5c1.333 1.333 3.167 2 5.5 2s4.333-.667 6-2M2.002 18l-.97-.975a3.536 3.536 0 0 1 .004-4.996 3.513 3.513 0 0 1 4.98.012l.582.588" stroke="#FFF" stroke-linecap="round" stroke-linejoin="round"/>
    </g>
</svg>