<svg width="31" height="27" xmlns="http://www.w3.org/2000/svg">
    <path d="M2.5 2.636c2 1.667 3.333 2.667 4 3l4 2c1 .5 4 .5 4.5.5s0-2 .5-3.5 1-3 4-3.5 4.5.5 6 1c1 .334 2.333 0 4-1l-1.5 3 2.5-.5-2.5 4c-.333 2.667-.667 4.667-1 6-.5 2-2.5 5-5 7.5s-6 4-8.5 4.5-5.5.5-7.5 0c-1.333-.333-3-1.166-5-2.5 2-.333 3.667-.666 5-1 1.333-.333 2.5-1 3.5-2-1.667-.333-3-.833-4-1.5-1-.666-1.667-1.5-2-2.5l4 .5c-2-1.333-3.333-2.333-4-3-.667-.666-1.333-2-2-4l3.5 1C3.667 9.212 2.833 8 2.5 7c-.333-1-.333-2.455 0-4.364z" stroke="#FFF" fill="none" stroke-linecap="round" stroke-linejoin="round"/>
</svg>