<svg width="34" height="42" viewBox="0 0 34 42" xmlns="http://www.w3.org/2000/svg"><title>Icon - benefits</title><g fill="none" fill-rule="evenodd"><path d="M15.365 39.874L1.942 27.388a2 2 0 0 1 1.363-3.465h3.49a2 2 0 0 0 2-2V3.787a2 2 0 0 1 2-2h11.864a2 2 0 0 1 2 2v18.136a2 2 0 0 0 2 2h3.49a2 2 0 0 1 1.363 3.465L18.089 39.874a2 2 0 0 1-2.724 0z" stroke="#383B41" stroke-width="2"/><path d="M19.988 21.8l-1.495.922c-.47-.829-1.058-1.204-1.747-1.204-.756 0-1.226.547-1.226 1.188 0 2.156 5.039 1.734 5.039 5.11 0 1.734-1.176 2.968-2.856 3.25v1.36h-1.68v-1.36c-1.595-.297-2.67-1.47-3.023-2.97l1.512-.89c.336 1.219 1.024 2.313 2.368 2.313 1.059 0 1.798-.672 1.798-1.641 0-2.14-5.006-1.672-5.006-5.047 0-1.406.991-2.516 2.352-2.797v-1.36h1.68v1.391c1.058.25 1.797.922 2.284 1.735z" fill="#383B41"/></g></svg>