<svg width="186" height="224" viewBox="0 0 186 224" xmlns="http://www.w3.org/2000/svg"><title>noun_383412_cc</title><path d="M153.667 2.92c-16.723 0-30.334 13.683-30.334 30.493 0 4.816 1.095 9.367 3.081 13.42L54.61 91.62c-5.546-6.067-13.452-9.926-22.276-9.926C15.611 81.694 2 95.376 2 112.186c0 16.811 13.61 30.493 30.333 30.493 8.864 0 16.806-3.89 22.355-10.005l71.805 44.786a30.348 30.348 0 0 0-3.16 13.5c0 16.81 13.611 30.492 30.334 30.492 16.722 0 30.333-13.682 30.333-30.492 0-16.811-13.61-30.493-30.333-30.493-10.07 0-18.97 5.01-24.488 12.626l-71.33-44.47c3.026-4.741 4.818-10.395 4.818-16.437 0-6.098-1.818-11.747-4.898-16.517l71.33-44.468c5.514 7.666 14.459 12.705 24.568 12.705 16.722 0 30.333-13.682 30.333-30.493 0-16.81-13.61-30.493-30.333-30.493zm0 5.082c13.99 0 25.277 11.347 25.277 25.411 0 14.064-11.287 25.41-25.277 25.41s-25.278-11.346-25.278-25.41 11.287-25.41 25.278-25.41zM32.333 86.776c13.99 0 25.278 11.346 25.278 25.41s-11.287 25.411-25.278 25.411c-13.99 0-25.277-11.347-25.277-25.41 0-14.065 11.287-25.411 25.277-25.411zm121.334 78.773c13.99 0 25.277 11.347 25.277 25.41 0 14.065-11.287 25.411-25.277 25.411s-25.278-11.346-25.278-25.41 11.287-25.411 25.278-25.411z" fill="#231A3A" fill-rule="nonzero" stroke="#231A3A" stroke-width="4"/></svg>