<svg width="220" height="220" viewBox="0 0 220 220" xmlns="http://www.w3.org/2000/svg"><title>noun_1524693_cc</title><g fill="#231A3A" fill-rule="nonzero"><path d="M21.022 131.022C9.533 131.022 0 121.49 0 110c0-11.489 9.533-21.022 21.022-21.022 11.49 0 21.022 9.533 21.022 21.022 0 11.489-9.533 21.022-21.022 21.022zm0-32.755C14.667 98.267 9.29 103.4 9.29 110c0 6.356 5.133 11.733 11.733 11.733 6.6 0 11.734-5.133 11.734-11.733 0-6.356-5.378-11.733-11.734-11.733zM198.978 131.022c-11.49 0-21.022-9.533-21.022-21.022 0-11.489 9.533-21.022 21.022-21.022C210.467 88.978 220 98.51 220 110c0 11.489-9.533 21.022-21.022 21.022zm0-32.755c-6.356 0-11.734 5.133-11.734 11.733 0 6.356 5.134 11.733 11.734 11.733S210.71 116.6 210.71 110c0-6.356-5.378-11.733-11.733-11.733zM110 42.044c-11.489 0-21.022-9.533-21.022-21.022C88.978 9.533 98.51 0 110 0c11.489 0 21.022 9.533 21.022 21.022 0 11.49-9.533 21.022-21.022 21.022zm0-32.755c-6.356 0-11.733 5.133-11.733 11.733 0 6.356 5.133 11.734 11.733 11.734 6.356 0 11.733-5.134 11.733-11.734 0-6.355-5.377-11.733-11.733-11.733zM110 131.022c-11.489 0-21.022-9.533-21.022-21.022 0-11.489 9.533-21.022 21.022-21.022 11.489 0 21.022 9.533 21.022 21.022 0 11.489-9.533 21.022-21.022 21.022zm0-32.755c-6.356 0-11.733 5.133-11.733 11.733 0 6.356 5.133 11.733 11.733 11.733 6.356 0 11.733-5.133 11.733-11.733 0-6.356-5.377-11.733-11.733-11.733zM110 220c-11.489 0-21.022-9.533-21.022-21.022 0-11.49 9.533-21.022 21.022-21.022 11.489 0 21.022 9.533 21.022 21.022C131.022 210.467 121.49 220 110 220zm0-32.756c-6.356 0-11.733 5.134-11.733 11.734 0 6.355 5.133 11.733 11.733 11.733 6.356 0 11.733-5.133 11.733-11.733 0-6.356-5.377-11.734-11.733-11.734zM79.444 179.178c-1.222 0-2.444-.49-3.422-1.467L41.8 143.49c-1.711-1.711-1.711-4.889 0-6.6 1.711-1.711 4.889-1.711 6.6 0l34.222 34.222c1.711 1.711 1.711 4.889 0 6.6-.733 1.222-1.955 1.467-3.178 1.467zM140.556 179.178c-1.223 0-2.445-.49-3.423-1.467-1.71-1.711-1.71-4.889 0-6.6l33.734-33.733c1.71-1.711 4.889-1.711 6.6 0 1.71 1.71 1.71 4.889 0 6.6l-33.734 33.978c-.733.977-1.955 1.222-3.177 1.222zM174.533 84.089c-1.222 0-2.444-.489-3.422-1.467L136.89 48.4c-1.711-1.711-1.711-4.889 0-6.6 1.711-1.711 4.889-1.711 6.6 0l34.222 34.222c1.711 1.711 1.711 4.89 0 6.6-.733.978-1.955 1.467-3.178 1.467zM45.467 84.089c-1.223 0-2.445-.489-3.423-1.467-1.71-1.71-1.71-4.889 0-6.6L76.267 41.8c1.71-1.711 4.889-1.711 6.6 0 1.71 1.711 1.71 4.889 0 6.6L48.644 82.622c-.977.978-1.955 1.467-3.177 1.467zM77.489 114.644H53.533c-2.689 0-4.644-2.2-4.644-4.644s2.2-4.644 4.644-4.644H77.49c2.689 0 4.644 2.2 4.644 4.644s-2.2 4.644-4.644 4.644zM166.467 114.644H142.51c-2.689 0-4.644-2.2-4.644-4.644s2.2-4.644 4.644-4.644h23.956c2.689 0 4.644 2.2 4.644 4.644s-1.955 4.644-4.644 4.644zM110 171.111c-2.689 0-4.644-2.2-4.644-4.644V142.51c0-2.689 2.2-4.644 4.644-4.644s4.644 2.2 4.644 4.644v23.956c0 2.689-2.2 4.644-4.644 4.644zM110 82.133c-2.689 0-4.644-2.2-4.644-4.644V53.533c0-2.689 2.2-4.644 4.644-4.644s4.644 2.2 4.644 4.644V77.49c0 2.444-2.2 4.644-4.644 4.644z"/></g></svg>