<?xml version="1.0" standalone="no"?>
<!DOCTYPE svg PUBLIC "-//W3C//DTD SVG 20010904//EN"
 "http://www.w3.org/TR/2001/REC-SVG-20010904/DTD/svg10.dtd">
<svg version="1.0" xmlns="http://www.w3.org/2000/svg"
 width="576.000000pt" height="576.000000pt" viewBox="0 0 576.000000 576.000000"
 preserveAspectRatio="xMidYMid meet">
<metadata>
Created by potrace 1.11, written by Peter Selinger 2001-2013
</metadata>
<g transform="translate(0.000000,576.000000) scale(0.100000,-0.100000)"
fill="#000000" stroke="none">
<path d="M2837 5408 c-15 -11 -27 -24 -27 -29 0 -6 -8 -22 -19 -37 -36 -54
-55 -87 -53 -94 1 -5 -1 -8 -6 -8 -4 0 -19 -21 -32 -47 -14 -27 -29 -50 -33
-51 -4 -2 -19 -27 -34 -55 -14 -29 -29 -54 -33 -57 -3 -3 -17 -25 -31 -50 -13
-25 -27 -47 -30 -50 -3 -3 -17 -25 -30 -50 -14 -25 -45 -76 -69 -115 -25 -38
-43 -72 -42 -74 2 -2 0 -7 -5 -10 -5 -3 -35 -49 -66 -101 -31 -52 -61 -100
-67 -107 -5 -7 -10 -15 -10 -18 0 -3 -12 -24 -27 -48 -14 -23 -25 -44 -24 -46
2 -2 -1 -7 -6 -10 -5 -3 -21 -27 -36 -53 -15 -27 -32 -48 -37 -48 -6 0 -9 -3
-8 -7 3 -9 -55 -113 -124 -221 -16 -24 -28 -47 -28 -53 0 -5 -4 -9 -10 -9 -5
0 -10 -5 -10 -11 0 -6 -39 -73 -86 -150 -47 -76 -85 -141 -84 -144 0 -3 -9
-15 -20 -27 -11 -12 -20 -27 -20 -33 0 -6 -9 -21 -20 -33 -12 -12 -18 -22 -15
-22 3 0 -5 -15 -18 -32 -14 -18 -28 -43 -32 -55 -3 -13 -11 -23 -16 -23 -5 0
-9 -7 -9 -15 0 -8 -4 -15 -9 -15 -5 0 -14 -13 -20 -30 -5 -16 -15 -30 -22 -30
-7 0 -9 -3 -6 -7 4 -3 3 -11 -2 -17 -5 -6 -18 -27 -29 -46 -47 -83 -106 -175
-113 -178 -5 -2 -7 -8 -3 -13 3 -5 0 -9 -5 -9 -6 0 -11 -4 -11 -9 0 -5 -22
-46 -50 -91 -27 -45 -50 -86 -50 -91 0 -5 -5 -9 -11 -9 -5 0 -8 -4 -5 -9 4 -5
2 -11 -2 -13 -5 -1 -39 -55 -77 -118 -38 -63 -75 -121 -82 -128 -7 -7 -13 -19
-13 -26 0 -7 -9 -22 -20 -34 -12 -12 -18 -22 -14 -22 3 0 1 -7 -6 -15 -7 -8
-20 -28 -29 -44 -9 -16 -70 -118 -136 -226 -66 -108 -131 -215 -144 -238 -13
-23 -28 -43 -32 -45 -5 -2 -9 -8 -9 -14 0 -6 -12 -29 -28 -52 -90 -135 -100
-191 -39 -222 17 -9 34 -20 37 -24 3 -4 23 -17 45 -29 22 -12 49 -27 60 -34
69 -43 101 -61 108 -59 4 1 7 -3 7 -8 0 -6 5 -10 10 -10 6 0 36 -16 66 -35 30
-19 59 -35 64 -35 6 0 10 -4 10 -10 0 -5 5 -10 10 -10 10 0 139 -77 150 -90 3
-3 10 -6 15 -7 15 -2 327 -189 348 -207 9 -9 17 -14 17 -12 0 3 48 -24 108
-59 59 -35 129 -76 155 -92 26 -15 70 -41 97 -58 84 -52 115 -69 123 -67 4 1
7 -3 7 -8 0 -6 12 -16 28 -23 40 -18 176 -100 184 -112 4 -5 8 -7 8 -2 0 4 24
-8 52 -28 29 -19 58 -35 64 -35 6 0 19 -9 29 -20 10 -11 22 -20 26 -20 11 0
154 -83 157 -92 2 -4 8 -8 12 -8 5 0 54 -27 108 -60 55 -33 108 -60 118 -60
11 0 75 34 144 75 69 41 130 75 136 75 7 0 15 7 18 16 3 8 10 13 15 9 5 -3 12
-1 16 5 3 6 25 20 48 31 23 12 44 25 47 29 3 4 28 19 55 34 28 14 59 32 70 39
16 10 68 41 160 94 11 6 67 40 125 74 58 34 107 61 109 60 2 -2 7 1 10 6 3 4
22 17 41 27 19 11 37 23 40 26 3 4 25 18 50 30 25 12 47 26 50 29 3 4 19 13
35 22 17 8 81 45 143 82 62 37 117 67 122 67 6 0 10 5 10 10 0 6 6 10 14 10 7
0 24 8 37 18 13 10 44 30 69 43 25 13 47 27 50 30 4 4 76 47 190 111 19 11 38
25 42 32 4 6 8 8 8 4 0 -4 25 8 55 27 30 19 59 35 65 35 5 0 10 5 10 12 0 6 3
9 6 5 3 -3 37 14 74 38 37 24 85 52 106 63 22 11 53 33 70 49 26 24 30 32 23
57 -4 15 -14 36 -21 45 -8 9 -20 30 -28 46 -8 17 -26 48 -41 70 -57 86 -94
150 -92 157 2 5 0 8 -5 8 -4 0 -16 17 -27 38 -11 20 -26 43 -33 50 -7 8 -10
17 -7 22 3 4 -2 10 -10 14 -8 3 -15 10 -15 16 0 6 -18 39 -40 74 -22 35 -40
68 -40 75 0 6 -4 11 -8 11 -5 0 -17 17 -28 38 -10 20 -30 52 -43 70 -13 17
-19 32 -15 32 5 0 4 4 -1 8 -14 10 -65 90 -65 102 0 5 -4 10 -10 10 -5 0 -10
4 -10 9 0 12 -70 131 -87 149 -6 6 -15 22 -19 35 -4 12 -10 24 -14 27 -4 3
-20 28 -35 55 -16 28 -33 53 -38 56 -5 3 -7 8 -6 10 2 2 -14 30 -34 62 -20 31
-37 59 -37 62 0 3 -16 29 -35 59 -19 30 -35 58 -35 61 0 4 -11 21 -25 39 -14
18 -25 38 -25 44 0 7 -4 12 -10 12 -5 0 -10 5 -10 10 0 6 -12 29 -27 53 -15
23 -36 57 -46 76 -10 19 -30 52 -45 75 -14 23 -24 43 -23 45 2 2 -1 7 -6 10
-5 3 -38 55 -74 114 -35 60 -72 120 -82 135 -9 15 -20 35 -23 45 -4 9 -11 17
-17 17 -6 0 -8 3 -4 6 3 4 -5 21 -18 39 -14 17 -25 35 -25 39 0 4 -16 30 -35
59 -19 28 -35 57 -35 64 0 6 -4 13 -8 15 -10 4 -72 105 -72 118 0 5 -8 14 -17
19 -10 6 -15 11 -11 11 4 0 -8 25 -27 55 -20 30 -32 55 -28 55 4 0 0 5 -9 11
-10 5 -18 15 -18 21 0 6 -11 26 -26 45 -14 18 -22 33 -18 33 4 0 0 8 -8 18 -8
9 -32 46 -54 82 -43 71 -42 70 -97 162 -20 35 -47 80 -60 100 -12 20 -44 74
-72 120 -27 46 -54 90 -60 99 -5 9 -19 32 -29 50 -10 19 -23 37 -28 40 -5 3
-9 8 -7 10 1 2 -14 30 -35 61 -20 31 -36 61 -36 67 0 5 -4 11 -8 13 -5 2 -16
17 -25 33 -9 17 -24 45 -33 62 -16 29 -35 42 -70 49 -5 1 -22 -7 -37 -18z
m-23 -354 c1 -33 -2 -69 -6 -81 -4 -13 -4 -23 0 -23 9 0 8 -1092 -1 -1107 -4
-6 -4 -14 1 -17 13 -8 -1 -256 -16 -281 -4 -5 -7 -16 -8 -23 -4 -21 -73 -100
-94 -107 -11 -4 -20 -11 -20 -16 0 -6 -4 -7 -10 -4 -5 3 -10 2 -10 -3 0 -5
-26 -22 -57 -38 -32 -16 -60 -31 -63 -34 -3 -4 -23 -14 -45 -24 -22 -11 -59
-32 -82 -47 -23 -16 -45 -29 -50 -29 -4 0 -14 -9 -21 -20 -7 -11 -17 -20 -22
-20 -29 0 -185 -188 -221 -267 -11 -24 -24 -43 -30 -43 -6 0 -9 -6 -6 -14 3
-7 0 -19 -6 -25 -6 -6 -7 -11 -3 -11 5 0 4 -6 -1 -12 -14 -17 -44 -112 -49
-151 -10 -84 -10 -128 0 -136 18 -14 105 -40 109 -33 2 4 3 25 2 47 -1 22 3
45 7 52 5 6 8 17 6 25 -3 18 62 218 72 218 5 0 12 10 16 23 16 52 153 217 180
217 8 0 14 4 14 10 0 5 34 32 75 60 41 28 75 48 75 45 0 -7 152 76 168 92 7 7
17 13 21 13 5 0 36 25 70 55 34 30 59 55 56 55 -4 0 3 14 15 30 30 43 47 103
55 195 1 22 4 40 5 40 1 0 3 324 4 720 2 396 4 724 4 729 1 5 16 -20 34 -55
17 -35 39 -69 47 -76 9 -7 12 -13 8 -13 -4 0 9 -26 30 -58 53 -80 60 -92 84
-137 12 -22 35 -59 50 -82 16 -23 29 -46 29 -52 0 -6 5 -11 10 -11 6 0 10 -5
10 -10 0 -6 22 -45 48 -88 26 -42 51 -84 55 -92 4 -8 47 -80 97 -160 49 -80
99 -163 111 -185 12 -22 24 -42 28 -45 3 -3 17 -25 30 -50 14 -25 27 -47 31
-50 3 -3 18 -25 31 -50 61 -107 72 -126 87 -142 8 -10 11 -18 7 -18 -5 0 1
-10 12 -22 11 -13 22 -28 24 -33 5 -14 122 -209 129 -215 3 -3 17 -26 30 -52
14 -27 29 -48 33 -48 5 0 5 -4 2 -10 -3 -5 -2 -10 3 -10 5 0 17 -18 27 -40 10
-22 22 -40 27 -40 5 0 6 -4 3 -10 -3 -5 -2 -10 3 -10 5 0 17 -18 27 -40 10
-22 22 -40 27 -40 4 0 8 -5 8 -10 0 -6 15 -35 33 -64 17 -28 37 -61 44 -72 7
-10 40 -66 74 -124 35 -58 68 -112 74 -120 7 -8 23 -35 36 -60 13 -25 27 -47
30 -50 3 -3 16 -25 30 -50 13 -25 26 -47 29 -50 3 -3 19 -27 35 -55 16 -27 38
-63 48 -80 9 -16 20 -38 23 -48 4 -9 10 -17 14 -17 4 0 13 -13 20 -30 7 -16
16 -30 20 -30 4 0 10 -8 13 -17 7 -23 49 -94 65 -111 6 -7 12 -20 12 -28 0 -8
5 -14 10 -14 6 0 10 -7 10 -15 0 -8 5 -15 12 -15 6 0 9 -3 6 -6 -3 -3 25 -55
63 -115 38 -60 69 -114 69 -119 0 -6 5 -10 11 -10 5 0 8 -4 4 -10 -5 -9 -52 6
-65 20 -3 3 -25 12 -49 20 -24 8 -50 20 -57 28 -8 7 -18 11 -23 8 -5 -4 -11
-3 -13 1 -1 5 -64 35 -138 68 -74 33 -138 64 -142 70 -4 5 -8 6 -8 2 0 -5 -6
-5 -12 0 -7 4 -15 8 -18 8 -3 1 -29 13 -59 28 -30 15 -61 27 -68 27 -7 0 -13
5 -13 10 0 6 -6 10 -13 10 -7 0 -38 12 -68 27 -30 15 -56 27 -59 28 -3 0 -39
18 -81 38 -67 33 -183 124 -184 145 -1 4 -6 16 -12 27 -25 48 -44 129 -46 198
0 20 -4 37 -8 37 -4 0 -6 8 -4 18 1 9 -2 23 -7 29 -6 7 -8 20 -4 28 3 8 1 15
-4 15 -4 0 -12 15 -15 33 -18 82 -134 268 -217 347 -58 56 -111 100 -118 100
-4 0 -25 13 -47 29 -21 15 -56 34 -76 42 -20 7 -37 17 -37 23 0 5 -3 7 -6 4
-3 -4 -24 2 -47 12 -23 10 -57 20 -76 22 -31 3 -35 0 -62 -49 -27 -51 -28 -53
-9 -63 10 -5 26 -10 35 -10 9 0 26 -5 38 -12 12 -7 27 -12 32 -13 19 -2 95
-37 95 -44 0 -4 6 -8 13 -8 19 0 116 -72 177 -133 58 -58 140 -173 140 -196 0
-8 5 -14 12 -14 6 0 8 -3 5 -7 -4 -3 -3 -11 3 -18 8 -9 23 -58 46 -150 3 -11
7 -31 9 -45 2 -14 7 -43 11 -65 4 -22 8 -52 8 -67 1 -16 4 -28 9 -28 4 0 7 -7
7 -15 0 -31 53 -119 98 -164 76 -76 103 -90 485 -265 43 -20 80 -36 82 -36 2
0 48 -21 102 -46 315 -148 368 -171 387 -172 5 0 12 -4 15 -9 3 -5 17 -13 30
-19 24 -10 24 -10 -15 -34 -21 -13 -42 -23 -46 -22 -5 1 -8 -2 -8 -6 0 -5 -18
-17 -40 -27 -22 -10 -40 -22 -40 -26 0 -7 -41 -24 -48 -20 -1 1 -11 -7 -22
-16 -10 -10 -36 -27 -57 -38 -21 -11 -41 -23 -44 -28 -3 -4 -15 -9 -27 -10
-12 0 -19 -3 -17 -6 3 -3 -252 -161 -261 -161 -1 0 -32 -18 -68 -40 -36 -22
-70 -40 -76 -40 -5 0 -10 -4 -10 -9 0 -5 -13 -14 -29 -21 -16 -6 -52 -26 -79
-43 -63 -40 -104 -63 -116 -64 -5 -1 -12 -5 -15 -10 -3 -5 -26 -20 -51 -34
-25 -13 -51 -30 -58 -36 -7 -7 -18 -13 -23 -13 -6 0 -17 -7 -26 -16 -9 -8 -22
-13 -30 -10 -8 3 -12 2 -9 -3 3 -4 -29 -28 -72 -52 -42 -24 -79 -47 -80 -51
-2 -5 -8 -6 -13 -2 -5 3 -9 1 -9 -3 0 -5 -18 -17 -40 -27 -22 -10 -40 -22 -40
-27 0 -6 -4 -7 -10 -4 -5 3 -10 1 -10 -4 0 -6 -4 -11 -10 -11 -5 0 -39 -18
-75 -40 -36 -22 -67 -40 -70 -40 -2 0 -21 -12 -42 -26 -21 -14 -47 -30 -58
-35 -11 -5 -29 -15 -40 -21 -81 -52 -126 -77 -142 -80 -17 -3 -18 17 -17 402
1 223 4 414 7 425 20 76 63 130 137 172 25 15 52 32 60 39 8 6 39 25 68 40
139 75 221 132 292 204 84 84 120 127 113 134 -3 3 2 8 11 12 9 3 14 10 11 14
-3 4 2 13 10 20 27 22 16 53 -33 94 l-47 39 -18 -42 c-10 -22 -22 -41 -27 -41
-6 0 -10 -6 -10 -12 0 -22 -131 -168 -149 -168 -6 0 -14 -6 -18 -14 -15 -25
-160 -109 -174 -100 -5 3 -8 1 -7 -4 2 -8 -155 -112 -169 -112 -1 0 -11 -8
-22 -18 -10 -9 -31 -28 -48 -42 -16 -14 -29 -28 -29 -32 1 -4 -9 -15 -21 -23
-13 -9 -23 -25 -23 -35 0 -10 -4 -21 -9 -24 -4 -3 -12 -20 -16 -38 -4 -18 -10
-40 -12 -48 -3 -8 -6 -203 -7 -433 0 -229 -5 -417 -9 -417 -9 0 -70 31 -77 39
-3 4 -26 18 -52 31 -27 14 -48 28 -48 32 0 5 -4 8 -9 8 -6 0 -62 31 -127 70
-64 38 -121 70 -125 70 -5 0 -9 5 -9 11 0 5 -4 7 -10 4 -5 -3 -10 -2 -10 3 0
5 -8 13 -17 16 -10 3 -27 12 -38 19 -11 7 -68 41 -127 76 -60 34 -108 67 -108
73 0 5 -4 7 -9 3 -5 -3 -16 1 -24 9 -8 8 -17 12 -21 9 -3 -4 -6 -1 -6 5 0 7
-5 12 -10 12 -6 0 -29 12 -53 27 -59 38 -99 61 -119 69 -10 3 -18 11 -18 16 0
5 -4 7 -9 4 -4 -3 -19 3 -31 14 -12 11 -31 22 -41 25 -11 4 -19 11 -19 16 0 5
-3 8 -7 7 -5 -1 -41 18 -82 42 -40 25 -90 54 -110 65 -20 11 -38 22 -41 25 -7
7 -99 62 -142 85 -21 11 -38 23 -38 27 0 5 -5 8 -11 8 -9 0 -276 155 -304 177
-6 4 -17 9 -24 11 -7 1 -19 9 -27 16 -7 8 -27 20 -44 28 -16 7 -30 15 -30 18
0 3 14 14 30 23 17 10 30 15 30 12 0 -6 59 24 70 35 3 3 10 5 15 5 10 1 113
46 147 65 10 6 25 10 33 10 8 0 15 5 15 10 0 6 4 10 9 10 5 0 40 14 78 32 37
17 70 32 73 33 3 1 22 9 44 18 21 9 42 17 47 17 5 0 9 5 9 10 0 6 3 9 8 8 4
-1 16 3 27 9 11 6 23 11 28 12 4 0 33 13 65 28 31 15 59 28 62 29 3 0 32 14
65 29 33 16 63 29 68 31 4 1 8 2 10 4 7 6 101 22 132 23 65 1 140 -34 161 -74
11 -22 122 -165 149 -194 11 -11 34 -36 52 -55 38 -42 70 -69 143 -117 30 -20
58 -41 62 -47 4 -6 8 -7 8 -3 0 5 6 5 13 0 6 -4 18 -8 26 -10 8 -1 18 -8 22
-15 5 -7 9 -8 9 -3 0 6 3 6 8 -1 4 -6 32 -16 62 -22 59 -11 82 -2 95 39 4 11
10 17 15 14 9 -6 21 35 14 47 -3 4 -13 8 -23 8 -28 0 -114 31 -135 49 -16 13
-18 13 -11 1 5 -9 -1 -7 -14 5 -13 11 -25 19 -27 17 -3 -2 -42 22 -88 52 -91
60 -107 78 -243 261 -37 50 -75 96 -84 103 -10 7 -25 19 -34 28 -8 8 -15 13
-15 10 0 -3 -19 3 -42 14 -39 16 -62 20 -148 22 -14 0 -43 -2 -65 -6 -22 -4
-46 -7 -52 -8 -7 -1 -13 -5 -13 -9 0 -4 -12 -10 -27 -14 -15 -3 -60 -22 -100
-40 -40 -19 -73 -31 -73 -27 0 4 -4 2 -8 -3 -7 -10 -51 -33 -62 -32 -3 0 -16
-6 -30 -13 -14 -8 -28 -13 -32 -12 -5 1 -8 -2 -8 -8 0 -6 -3 -9 -7 -8 -9 1
-56 -19 -173 -74 -47 -23 -91 -41 -97 -41 -7 0 -13 -4 -13 -8 0 -4 -10 -11
-22 -15 -12 -3 -37 -13 -57 -22 -20 -9 -38 -16 -41 -17 -3 -1 -36 -16 -74 -34
-38 -17 -71 -29 -73 -27 -3 3 7 21 22 40 15 20 23 36 19 36 -5 0 -4 4 2 8 5 4
28 36 49 72 21 36 43 68 48 71 5 3 8 8 6 10 -2 4 65 121 116 203 11 18 33 54
50 82 16 27 33 52 38 55 5 3 9 10 9 15 1 5 12 26 24 46 13 21 24 42 24 47 0 5
4 11 8 13 4 2 41 59 82 128 40 69 77 127 82 128 4 2 8 8 8 13 0 12 62 113 72
117 4 2 8 8 8 14 0 5 20 43 45 84 25 40 45 78 45 83 0 5 7 12 16 15 8 3 12 10
9 16 -3 5 -1 10 4 10 6 0 11 6 11 13 0 7 8 22 19 33 10 11 22 30 25 42 4 12
12 22 17 22 5 0 9 6 9 13 0 7 20 43 44 80 25 38 46 71 48 75 19 42 82 142 89
142 6 0 8 4 5 9 -3 5 1 14 9 21 8 7 12 16 9 21 -3 5 -1 9 4 9 5 0 15 14 22 30
7 17 16 30 21 30 5 0 9 4 9 10 0 10 59 111 70 120 4 3 13 20 21 38 8 17 17 32
21 32 5 0 8 5 8 11 0 6 14 30 30 54 17 24 30 48 30 54 0 6 5 11 10 11 6 0 10
5 10 11 0 5 27 53 60 106 33 52 60 98 60 102 0 4 8 16 18 27 9 11 26 37 37 59
28 56 81 136 86 130 3 -2 6 6 6 18 1 12 7 23 13 25 5 2 10 10 10 18 0 8 5 14
11 14 5 0 8 4 5 9 -3 5 1 15 10 22 9 7 20 22 24 34 9 22 203 343 219 361 5 7
7 15 4 18 -4 3 -1 6 5 6 7 0 12 5 12 12 0 6 11 26 25 44 14 18 25 38 25 45 0
7 3 10 6 7 3 -3 6 -32 8 -64z"/>
</g>
</svg>
