<svg width="1358" height="471" xmlns="http://www.w3.org/2000/svg">
    <path d="M136 78h2v2h-2zm-68 0h2v2h-2zm136 0h2v2h-2zM0 26h2v2H0zm136 0h1v1h-1zm-68 0h1v1h-1zm136 0h2v2h-2zM102 78h2v2h-2zm136 0h1v1h-1zM34 26h1v1h-1zm68 0h1v1h-1zm136 0h2v2h-2zM68 286h1v1h-1zm-34 0h1v1h-1zm68 0h2v2h-2zm136 0h2v2h-2zM0 130h1v1H0zm136 0h2v2h-2zm-68 0h1v1h-1zm136 0h2v2h-2zm-34 0h2v2h-2zm68 0h1v1h-1zM68 338h2v2h-2zm-34 0h1v1h-1zM136 52h2v9h-2zm-68 0h2v2h-2zm136 0h2v2h-2zM0 0h2v2H0zm136 0h1v1h-1zM68 0h1v1h-1zm136 0h2v2h-2zM102 52h2v2h-2zm136 0h2v2h-2zM34 0h1v1h-1zm136 0h1v1h-1zm-68 0h1v1h-1zm136 0h2v2h-2zM68 260h1v1h-1zm-34 0h1v1h-1zm68 0h2v2h-2zm136 0h2v2h-2zM0 104h1v1H0zm68 0h2v2h-2zm0 208h1v1h-1zm-34 0h1v1h-1zM0 182h2v2H0zm136 0h7v7h-7zm-68 0h2v2h-2zm102 0h2v2h-2zm68 0h1v1h-1zM136 390h2v2h-2zm-68 0h1v1h-1zm-34 0h1v1h-1zm68 0h1v1h-1zm136 0h2v2h-2zM136 234h2v2h-2zm-68 0h2v2h-2zm-34 0h2v2h-2zm204 0h1v1h-1zM136 442h1v1h-1zm102 0h6v6h-6zM0 156h2v2H0zm136 0h2v2h-2zm-68 0h2v2h-2zm102 0h2v2h-2zm68 0h1v1h-1zM136 364h2v2h-2zm-68 0h2v2h-2zm-34 0h2v2h-2zm68 0h2v2h-2zm136 0h2v2h-2zM0 208h2v2H0zm136 0h2v2h-2zm-68 0h2v2h-2zm-34 0h2v2h-2zm136 0h2v2h-2zm68 0h1v1h-1zM136 416h1v1h-1zm0 52h2v2h-2zm-68 0h1v1h-1zm170-52h2v2h-2zM34 468h1v1h-1zm68 0h2v2h-2zm136 0h2v2h-2zM340 78h2v2h-2zm-68-52h2v2h-2zm68 0h1v1h-1zm34 52h2v2h-2zm-68-52h1v1h-1zm68 0h1v1h-1zM272 286h2v2h-2zm102 0h2v2h-2zm-34-156h2v2h-2zm34 208h2v2h-2zM340 52h2v2h-2zM272 0h2v2h-2zm68 0h2v2h-2zm34 52h2v2h-2zM306 0h2v2h-2zm68 0h2v2h-2zM272 260h2v2h-2zm68 0h1v1h-1zm34 0h1v1h-1zm-34-156h10v3h-10zm34 208h1v1h-1zm-34-130h2v2h-2zm-68 208h2v2h-2zm68 0h1v1h-1zm-34 0h2v2h-2zm68 0h1v1h-1zM272 234h1v1h-1zm68 0h1v1h-1zm34 0h1v1h-1zM272 442h2v2h-2zm68-286h2v2h-2zm-68 208h2v2h-2zm68 0h2v2h-2zm34 0h2v2h-2zM272 208h1v1h-1zm68 0h1v1h-1zm34 0h1v1h-1zM272 416h2v2h-2zm0 52h2v2h-2zm68 0h1v1h-1zm-34 0h2v2h-2zm68 0h1v1h-1zm34-390h2v2h-2zm68 0h2v2h-2zm-34 0h1v1h-1zm68 0h1v1h-1zM408 286h2v2h-2zm34 0h2v2h-2zm68 0h2v2h-2zM408 130h2v2h-2zm34 0h1v1h-1zm68 0h2v2h-2zm-68 208h2v2h-2zm68 0h1v1h-1zM408 52h2v2h-2zm68 0h2v2h-2zm0-52h2v2h-2zm-34 52h1v1h-1zm-34 208h2v2h-2zm34 0h2v2h-2zm68 0h2v2h-2zM408 104h2v2h-2zm68 0h2v2h-2zm-34 0h1v1h-1zm68 0h1v1h-1zm-68 208h1v1h-1zm68 0h1v1h-1zm-102 78h1v1h-1zm68 0h1v1h-1zm-34 0h1v1h-1zm68 0h2v2h-2zM408 156h1v1h-1zm34 0h2v2h-2zm-34 208h2v2h-2zm68 0h2v2h-2zm-34 0h2v2h-2zm68 0h2v2h-2zM408 208h2v2h-2zm34 0h2v2h-2zm-34 260h1v1h-1zm34 0h1v1h-1zM549 78h1v1h-1zm68-52h1v1h-1zm-34 0h1v1h-1zm68 0h1v1h-1zM549 286h2v2h-2zm68 0h2v2h-2zm-34 0h2v2h-2zm68 0h1v1h-1zM549 130h1v1h-1zm34 0h1v1h-1zm68 0h4v4h-4zM549 338h1v1h-1zm68 0h2v2h-2zm34 0h2v2h-2zM617 52h1v1h-1zm0-52h1v1h-1zm-34 52h2v2h-2zm68 0h1v1h-1zM583 0h2v2h-2zm68 0h1v1h-1zm-34 260h2v2h-2zm-34 0h2v2h-2zm68 0h1v1h-1zM549 104h1v1h-1zm34 0h1v1h-1zm68 0h2v2h-2zM549 312h1v1h-1zm68 0h2v2h-2zm34 0h1v1h-1zm-102 78h2v2h-2zm68 0h2v2h-2zm34 0h2v2h-2zm-102-26h2v2h-2zm68 0h2v2h-2zm34 0h2v2h-2zm-34 52h2v2h-2zm34 0h2v2h-2zM758 78h2v2h-2zm-68-52h2v2h-2zm68 0h1v1h-1zm-34 52h2v2h-2zm68 0h2v2h-2zm-68-52h1v1h-1zm68 0h1v1h-1zm-68 260h2v2h-2zm-34-156h2v2h-2zm34 0h2v2h-2zm0 208h2v2h-2zM690 52h2v2h-2zm68 0h1v1h-1zM690 0h2v2h-2zm68 0h2v2h-2zm-34 52h1v1h-1zm68 0h1v1h-1zM724 0h2v2h-2zm68 0h1v1h-1zM690 260h1v1h-1zm34 0h2v2h-2zm-34-156h2v2h-2zm68 0h2v2h-2zm-34 0h2v2h-2zm68 0h2v2h-2zm-68 208h2v2h-2zm34 78h2v2h-2zm-34 0h2v2h-2zm68 0h2v2h-2zm-68-26h2v2h-2zm34 52h2v2h-2zm-34 0h2v2h-2zm68 0h1v1h-1zm39-338h2v2h-2zm0-52h2v2h-2zm68 0h2v2h-2zm-34 52h2v2h-2zm0-52h2v2h-2zm68 0h2v2h-2zm-34 260h2v2h-2zm-34 0h2v2h-2zm68 0h1v1h-1zm-34-156h2v2h-2zm-34 0h2v2h-2zm68 0h1v1h-1zm-68 208h2v14h-2zm68 0h1v1h-1zM831 52h2v2h-2zm0-52h1v1h-1zm68 0h1v1h-1zm-34 52h5v5h-5zm0-52h1v1h-1zm68 0h1v1h-1zm-34 260h2v2h-2zm-34 0h2v2h-2zm-34-156h2v2h-2zm34 0h2v2h-2zm34 208h2v2h-2zm-34 0h2v2h-2zm68 0h1v1h-1zm-102 78h2v2h-2zm34 0h2v2h-2zm68 0h2v2h-2zm-34-156h2v2h-2zm-34 0h2v2h-2zm34 208h1v1h-1zm-34 0h1v1h-1zm68 0h1v1h-1zm-34-286h2v2h-2zm-34 0h2v2h-2zm68 0h2v2h-2zm-68 208h2v2h-2zm68 0h1v1h-1zm-34-156h2v2h-2zm-34 0h2v2h-2zm-34 208h1v1h-1zm68 0h1v1h-1zm0 52h2v2h-2zm-34-52h1v1h-1zm68 0h1v1h-1zm-68 52h2v2h-2zm68 0h2v2h-2zm39-442h2v2h-2zm34 52h10v3h-10zm68 0h2v2h-2zm-68-52h2v2h-2zm68 0h2v2h-2zm-34 260h1v1h-1zm34 0h2v2h-2zM972 130h1v1h-1zm68 0h2v2h-2zm-34 0h1v1h-1zm68 0h2v2h-2zm-34 208h1v1h-1zM972 0h1v1h-1zm34 52h2v2h-2zm68 0h2v2h-2zm-68-52h1v1h-1zm68 0h2v2h-2zm-34 260h1v1h-1zm0-156h2v2h-2zm-34 0h2v2h-2zm68 0h2v2h-2zm-34 208h1v1h-1zm0 78h2v2h-2zm34 0h2v2h-2zM972 234h2v2h-2zm68 0h1v1h-1zm-34 0h2v2h-2zm34 208h2v2h-2zm34 0h2v2h-2zM972 156h2v2h-2zm68 0h2v2h-2zm-34 0h2v2h-2zm68 0h2v2h-2zm-34 208h1v1h-1zm34 0h2v2h-2zM972 208h2v2h-2zm68 0h2v2h-2zm-34 0h2v2h-2zm34 208h10v3h-10zm0 52h1v1h-1zm34-52h2v2h-2zm0 52h1v1h-1zm39-390h2v2h-2zm0-52h2v2h-2zm68 0h2v2h-2zm34 52h2v2h-2zm-68-52h1v1h-1zm68 0h1v1h-1zm-102 104h2v2h-2zm68 0h1v1h-1zm-34 0h2v2h-2zm68 0h1v1h-1zm-34 208h2v2h-2zm-34 0h2v2h-2zm-34-286h2v2h-2zm68 0h2v2h-2zm-68-52h2v2h-2zm68 0h2v2h-2zm-34 52h1v1h-1zm68 0h1v1h-1zm-68-52h1v1h-1zm68 0h2v2h-2zm-102 260h2v2h-2zm68 0h2v2h-2zm-34 0h2v2h-2zm-34-156h2v2h-2zm102 0h2v2h-2zm-34 208h2v2h-2zm-34 0h2v2h-2zm34 78h1v1h-1zm-34 0h1v1h-1zm68 0h2v2h-2zm-102-156h1v1h-1zm34 0h1v1h-1zm-34 208h1v1h-1zm68 0h2v2h-2zm-34 0h1v1h-1zm-34-286h2v2h-2zm34 0h2v2h-2zm34 208h1v1h-1zm-34 0h2v2h-2zm68 0h2v2h-2zm-102-156h1v1h-1zm34 0h1v1h-1zm-34 208h1v1h-1zm68 0h1v1h-1zm-68 52h1v1h-1zm68 0h2v2h-2zm-34-52h1v1h-1zm0 52h1v1h-1zm107-442h2v2h-2zm68 0h2v2h-2zm-34 0h2v2h-2zm68 0h2v2h-2zm-34 260h2v2h-2zm-34 0h2v2h-2zm68 0h1v1h-1zm-102-156h1v1h-1zm68 0h1v1h-1zm-34 0h1v1h-1zm34 208h1v1h-1zm-34 0h1v1h-1zm68 0h2v2h-2zM1254 52h2v2h-2zm68 0h6v6h-6zm-68-52h2v2h-2zm68 0h2v2h-2zm-34 52h2v2h-2zm0-52h2v2h-2zm68 0h2v2h-2zm-34 260h1v1h-1zm-34 0h2v2h-2zm68 0h1v1h-1zm-102-156h2v2h-2zm68 0h2v2h-2zm-34 0h2v2h-2zm34 208h2v2h-2zm-34 0h2v2h-2zm68 0h1v1h-1zm-102-130h2v2h-2zm68 0h1v1h-1zm-34 0h2v2h-2zm68 0h2v2h-2zm-102 208h2v2h-2zm68 0h1v1h-1zm-34 0h1v1h-1zm34-156h1v1h-1zm-34 0h2v2h-2zm68 0h1v1h-1zm-102 208h2v2h-2zm68 0h2v2h-2zm-34 0h2v2h-2zm-34-286h2v2h-2zm0 208h2v2h-2zm68 0h1v1h-1zm-34 0h1v1h-1zm-34-156h2v2h-2zm68 0h1v1h-1zm-34 0h2v2h-2zm68 0h2v2h-2zm-102 208h2v2h-2zm68 0h1v1h-1zm-68 52h2v2h-2zm68 0h10v3h-10zm-34-52h1v1h-1zm0 52h2v2h-2z" fill="#FFF" fill-rule="evenodd" opacity=".5"/>
</svg>