<svg width="1183px" height="115px" viewBox="0 0 1183 115" version="1.1" xmlns="http://www.w3.org/2000/svg" xmlns:xlink="http://www.w3.org/1999/xlink">
    <g stroke="none" stroke-width="1" fill="none" fill-rule="evenodd" opacity="0.5">
        <g transform="translate(-245.000000, -79.000000)" fill="#FFFFFF">
            <g transform="translate(32.000000, 80.000000)">
                <g transform="translate(213.000000, -1.000000)">
                    <g>
                        <rect id="Rectangle-3" x="0" y="7" width="2" height="2"></rect>
                        <rect id="Rectangle-3" x="238" y="7" width="2" height="2"></rect>
                        <rect id="Rectangle-3" x="0" y="111" width="2" height="2"></rect>
                        <rect id="Rectangle-3" x="136" y="111" width="2" height="2"></rect>
                        <rect id="Rectangle-3" x="68" y="111" width="2" height="2"></rect>
                        <rect id="Rectangle-3" x="549" y="0" width="2" height="9"></rect>
                        <rect id="Rectangle-3" x="68" y="33" width="2" height="2"></rect>
                        <rect id="Rectangle-3" x="238" y="33" width="2" height="2"></rect>
                        <rect id="Rectangle-3" x="0" y="85" width="2" height="2"></rect>
                        <rect id="Rectangle-3" x="272" y="7" width="2" height="2"></rect>
                        <rect id="Rectangle-3" x="340" y="111" width="2" height="2"></rect>
                        <rect id="Rectangle-3" x="340" y="85" width="10" height="3"></rect>
                        <rect id="Rectangle-3" x="510" y="59" width="2" height="2"></rect>
                        <rect id="Rectangle-3" x="510" y="111" width="2" height="2"></rect>
                        <rect id="Rectangle-3" x="476" y="33" width="2" height="2"></rect>
                        <rect id="Rectangle-3" x="442" y="33" width="1" height="1"></rect>
                        <rect id="Rectangle-3" x="549" y="59" width="2" height="2"></rect>
                        <rect id="Rectangle-3" x="583" y="7" width="2" height="2"></rect>
                        <rect id="Rectangle-3" x="651" y="111" width="4" height="4"></rect>
                        <rect id="Rectangle-3" x="583" y="33" width="2" height="2"></rect>
                        <rect id="Rectangle-3" x="651" y="85" width="2" height="2"></rect>
                        <rect id="Rectangle-3" x="690" y="111" width="2" height="2"></rect>
                        <rect id="Rectangle-3" x="724" y="111" width="2" height="2"></rect>
                        <rect id="Rectangle-3" x="690" y="85" width="2" height="2"></rect>
                        <rect id="Rectangle-3" x="831" y="7" width="2" height="2"></rect>
                        <rect id="Rectangle-3" x="899" y="7" width="2" height="2"></rect>
                        <rect id="Rectangle-3" x="865" y="59" width="2" height="2"></rect>
                        <rect id="Rectangle-3" x="865" y="7" width="2" height="2"></rect>
                        <rect id="Rectangle-3" x="933" y="7" width="2" height="2"></rect>
                        <rect id="Rectangle-3" x="899" y="111" width="2" height="2"></rect>
                        <rect id="Rectangle-3" x="865" y="111" width="2" height="2"></rect>
                        <rect id="Rectangle-3" x="933" y="111" width="1" height="1"></rect>
                        <rect id="Rectangle-3" x="865" y="33" width="5" height="5"></rect>
                        <rect id="Rectangle-3" x="831" y="85" width="2" height="2"></rect>
                        <rect id="Rectangle-3" x="865" y="85" width="2" height="2"></rect>
                        <rect id="Rectangle-3" x="1006" y="59" width="10" height="3"></rect>
                        <rect id="Rectangle-3" x="1074" y="7" width="2" height="2"></rect>
                        <rect id="Rectangle-3" x="972" y="111" width="1" height="1"></rect>
                        <rect id="Rectangle-3" x="1040" y="111" width="2" height="2"></rect>
                        <rect id="Rectangle-3" x="1006" y="111" width="1" height="1"></rect>
                        <rect id="Rectangle-3" x="1074" y="33" width="2" height="2"></rect>
                        <rect id="Rectangle-3" x="1040" y="85" width="2" height="2"></rect>
                        <rect id="Rectangle-3" x="1006" y="85" width="2" height="2"></rect>
                        <rect id="Rectangle-3" x="1181" y="7" width="2" height="2"></rect>
                        <rect id="Rectangle-3" x="1215" y="59" width="2" height="2"></rect>
                        <rect id="Rectangle-3" x="1215" y="111" width="1" height="1"></rect>
                        <rect id="Rectangle-3" x="1215" y="33" width="1" height="1"></rect>
                        <rect id="Rectangle-3" x="1215" y="85" width="2" height="2"></rect>
                        <rect id="Rectangle-3" x="1254" y="7" width="2" height="2"></rect>
                        <rect id="Rectangle-3" x="1322" y="7" width="2" height="2"></rect>
                        <rect id="Rectangle-3" x="1288" y="7" width="2" height="2"></rect>
                        <rect id="Rectangle-3" x="1356" y="7" width="2" height="2"></rect>
                        <rect id="Rectangle-3" x="1322" y="111" width="1" height="1"></rect>
                        <rect id="Rectangle-3" x="1254" y="33" width="2" height="2"></rect>
                        <rect id="Rectangle-3" x="1322" y="33" width="6" height="6"></rect>
                        <rect id="Rectangle-3" x="1288" y="33" width="2" height="2"></rect>
                        <rect id="Rectangle-3" x="1322" y="85" width="2" height="2"></rect>
                    </g>
                </g>
            </g>
        </g>
    </g>
</svg>