<?xml version="1.0" encoding="UTF-8"?>
<svg width="186px" height="224px" viewBox="0 0 186 224" version="1.1" xmlns="http://www.w3.org/2000/svg" xmlns:xlink="http://www.w3.org/1999/xlink">
    <!-- Generator: Sketch 50.2 (55047) - http://www.bohemiancoding.com/sketch -->
    <title>noun_383412_cc</title>
    <desc>Created with Sketch.</desc>
    <defs></defs>
    <g id="Page-1" stroke="none" stroke-width="1" fill="none" fill-rule="evenodd">
        <g id="Homepage---final" transform="translate(-915.000000, -6201.000000)" fill="#231A3A" fill-rule="nonzero" stroke="#231A3A" stroke-width="4">
            <g id="noun_383412_cc" transform="translate(917.000000, 6203.000000)">
                <g id="Group">
                    <path d="M151.666667,0.920325069 C134.943968,0.920325069 121.333333,14.6025436 121.333333,31.4131762 C121.333333,36.2289706 122.427846,40.7799423 124.414063,44.833207 L52.609375,89.6195821 C47.0629048,83.5534233 39.1570573,79.6935238 30.3333333,79.6935238 C13.6106349,79.6935238 0,93.3756916 0,110.186375 C0,126.997084 13.6106349,140.679226 30.3333333,140.679226 C39.1971959,140.679226 47.1387128,136.788125 52.6883681,130.673759 L124.493056,175.460134 C122.477964,179.536843 121.333333,184.106553 121.333333,188.959574 C121.333333,205.770283 134.943968,219.452425 151.666667,219.452425 C168.389365,219.452425 182,205.770283 182,188.959574 C182,172.148865 168.389365,158.466723 151.666667,158.466723 C141.597102,158.466723 132.697186,163.477247 127.178819,171.092669 L55.8480903,126.623928 C58.8751471,121.881822 60.6666667,116.227723 60.6666667,110.186375 C60.6666667,104.087716 58.8491616,98.4393395 55.7690972,93.6694139 L127.099826,49.2006727 C132.6129,56.8665475 141.557831,61.9060273 151.666667,61.9060273 C168.389365,61.9060273 182,48.2238088 182,31.4131762 C182,14.6025436 168.389365,0.920325069 151.666667,0.920325069 Z M151.666667,6.00246692 C165.657138,6.00246692 176.944444,17.3491363 176.944444,31.4131762 C176.944444,45.4772161 165.657138,56.8238855 151.666667,56.8238855 C137.676195,56.8238855 126.388889,45.4772161 126.388889,31.4131762 C126.388889,17.3491363 137.676195,6.00246692 151.666667,6.00246692 Z M30.3333333,84.7756657 C44.3238048,84.7756657 55.6111111,96.1222843 55.6111111,110.186375 C55.6111111,124.25044 44.3238048,135.597084 30.3333333,135.597084 C16.3428619,135.597084 5.05555556,124.25044 5.05555556,110.186375 C5.05555556,96.1222843 16.3428619,84.7756657 30.3333333,84.7756657 Z M151.666667,163.548864 C165.657138,163.548864 176.944444,174.895508 176.944444,188.959574 C176.944444,203.023639 165.657138,214.370283 151.666667,214.370283 C137.676195,214.370283 126.388889,203.023639 126.388889,188.959574 C126.388889,174.895508 137.676195,163.548864 151.666667,163.548864 Z" id="Shape"></path>
                </g>
            </g>
        </g>
    </g>
</svg>