<?xml version="1.0" encoding="UTF-8"?>
<svg width="34px" height="42px" viewBox="0 0 34 42" version="1.1" xmlns="http://www.w3.org/2000/svg" xmlns:xlink="http://www.w3.org/1999/xlink">
    <!-- Generator: Sketch 50.2 (55047) - http://www.bohemiancoding.com/sketch -->
    <title>Icon - benefits</title>
    <desc>Created with Sketch.</desc>
    <defs></defs>
    <g id="Page-1" stroke="none" stroke-width="1" fill="none" fill-rule="evenodd">
        <g id="Homepage---final" transform="translate(-161.000000, -6871.000000)">
            <g id="Group-11" transform="translate(160.000000, 6872.000000)">
                <g id="Icon---benefits">
                    <g id="Icon">
                        <path d="M16.3648718,38.873809 L2.94247906,26.3878623 C2.13372792,25.6355357 2.08798683,24.3700321 2.84031347,23.561281 C3.21867871,23.1545383 3.74916933,22.9234888 4.30468695,22.9234888 L7.7947359,22.9234888 C8.8993054,22.9234888 9.7947359,22.0280583 9.7947359,20.9234888 L9.7947359,2.7867156 C9.7947359,1.6821461 10.6901664,0.786715597 11.7947359,0.786715597 L23.6594234,0.786715597 C24.7639929,0.786715597 25.6594234,1.6821461 25.6594234,2.7867156 L25.6594234,20.9234888 C25.6594234,22.0280583 26.5548539,22.9234888 27.6594234,22.9234888 L31.1494723,22.9234888 C32.2540418,22.9234888 33.1494723,23.8189193 33.1494723,24.9234888 C33.1494723,25.4790065 32.9184229,26.0094971 32.5116802,26.3878623 L19.0892875,38.873809 C18.3215562,39.5879777 17.1326031,39.5879777 16.3648718,38.873809 Z" id="Shape" stroke="#383B41" stroke-width="2" fill-rule="nonzero"></path>
                        <path d="M20.9878756,20.7995866 L19.4928733,21.7215111 C19.0225356,20.8933416 18.4346133,20.5183214 17.7459044,20.5183214 C16.9900044,20.5183214 16.5196667,21.0652258 16.5196667,21.7058853 C16.5196667,23.8622512 21.559,23.4403535 21.559,26.8155349 C21.559,28.5500031 20.3831556,29.7844444 18.7033778,30.0657096 L18.7033778,31.4251576 L17.0236,31.4251576 L17.0236,30.0657096 C15.4278111,29.7688186 14.3527533,28.5968806 14,27.0968 L15.5118,26.2061271 C15.8477556,27.4249426 16.5364644,28.5187514 17.8802867,28.5187514 C18.9385467,28.5187514 19.6776489,27.8468403 19.6776489,26.8780382 C19.6776489,24.7372982 14.6719111,25.2060734 14.6719111,21.830892 C14.6719111,20.4245664 15.66298,19.3151318 17.0236,19.0338667 L17.0236,17.6744186 L18.7033778,17.6744186 L18.7033778,19.0651183 C19.7616378,19.3151318 20.50074,19.9870429 20.9878756,20.7995866 Z" id="$" fill="#383B41"></path>
                    </g>
                </g>
            </g>
        </g>
    </g>
</svg>