<?xml version="1.0" encoding="UTF-8"?>
<svg width="220px" height="220px" viewBox="0 0 220 220" version="1.1" xmlns="http://www.w3.org/2000/svg" xmlns:xlink="http://www.w3.org/1999/xlink">
    <!-- Generator: Sketch 50.2 (55047) - http://www.bohemiancoding.com/sketch -->
    <title>noun_1524693_cc</title>
    <desc>Created with Sketch.</desc>
    <defs></defs>
    <g id="Page-1" stroke="none" stroke-width="1" fill="none" fill-rule="evenodd">
        <g id="Homepage---final" transform="translate(-320.000000, -6203.000000)" fill="#231A3A" fill-rule="nonzero">
            <g id="noun_1524693_cc" transform="translate(320.000000, 6203.000000)">
                <g id="Group">
                    <path d="M21.0222222,131.022222 C9.53333333,131.022222 0,121.488889 0,110 C0,98.5111111 9.53333333,88.9777778 21.0222222,88.9777778 C32.5111111,88.9777778 42.0444444,98.5111111 42.0444444,110 C42.0444444,121.488889 32.5111111,131.022222 21.0222222,131.022222 Z M21.0222222,98.2666667 C14.6666667,98.2666667 9.28888889,103.4 9.28888889,110 C9.28888889,116.355556 14.4222222,121.733333 21.0222222,121.733333 C27.6222222,121.733333 32.7555556,116.6 32.7555556,110 C32.7555556,103.644444 27.3777778,98.2666667 21.0222222,98.2666667 Z" id="Shape"></path>
                    <path d="M198.977778,131.022222 C187.488889,131.022222 177.955556,121.488889 177.955556,110 C177.955556,98.5111111 187.488889,88.9777778 198.977778,88.9777778 C210.466667,88.9777778 220,98.5111111 220,110 C220,121.488889 210.466667,131.022222 198.977778,131.022222 Z M198.977778,98.2666667 C192.622222,98.2666667 187.244444,103.4 187.244444,110 C187.244444,116.355556 192.377778,121.733333 198.977778,121.733333 C205.577778,121.733333 210.711111,116.6 210.711111,110 C210.711111,103.644444 205.333333,98.2666667 198.977778,98.2666667 Z" id="Shape"></path>
                    <path d="M110,42.0444444 C98.5111111,42.0444444 88.9777778,32.5111111 88.9777778,21.0222222 C88.9777778,9.53333333 98.5111111,0 110,0 C121.488889,0 131.022222,9.53333333 131.022222,21.0222222 C131.022222,32.5111111 121.488889,42.0444444 110,42.0444444 Z M110,9.28888889 C103.644444,9.28888889 98.2666667,14.4222222 98.2666667,21.0222222 C98.2666667,27.3777778 103.4,32.7555556 110,32.7555556 C116.355556,32.7555556 121.733333,27.6222222 121.733333,21.0222222 C121.733333,14.6666667 116.355556,9.28888889 110,9.28888889 Z" id="Shape"></path>
                    <path d="M110,131.022222 C98.5111111,131.022222 88.9777778,121.488889 88.9777778,110 C88.9777778,98.5111111 98.5111111,88.9777778 110,88.9777778 C121.488889,88.9777778 131.022222,98.5111111 131.022222,110 C131.022222,121.488889 121.488889,131.022222 110,131.022222 Z M110,98.2666667 C103.644444,98.2666667 98.2666667,103.4 98.2666667,110 C98.2666667,116.355556 103.4,121.733333 110,121.733333 C116.355556,121.733333 121.733333,116.6 121.733333,110 C121.733333,103.644444 116.355556,98.2666667 110,98.2666667 Z" id="Shape"></path>
                    <path d="M110,220 C98.5111111,220 88.9777778,210.466667 88.9777778,198.977778 C88.9777778,187.488889 98.5111111,177.955556 110,177.955556 C121.488889,177.955556 131.022222,187.488889 131.022222,198.977778 C131.022222,210.466667 121.488889,220 110,220 Z M110,187.244444 C103.644444,187.244444 98.2666667,192.377778 98.2666667,198.977778 C98.2666667,205.333333 103.4,210.711111 110,210.711111 C116.355556,210.711111 121.733333,205.577778 121.733333,198.977778 C121.733333,192.622222 116.355556,187.244444 110,187.244444 Z" id="Shape"></path>
                    <path d="M79.4444444,179.177778 C78.2222222,179.177778 77,178.688889 76.0222222,177.711111 L41.8,143.488889 C40.0888889,141.777778 40.0888889,138.6 41.8,136.888889 C43.5111111,135.177778 46.6888889,135.177778 48.4,136.888889 L82.6222222,171.111111 C84.3333333,172.822222 84.3333333,176 82.6222222,177.711111 C81.8888889,178.933333 80.6666667,179.177778 79.4444444,179.177778 Z" id="Shape"></path>
                    <path d="M140.555556,179.177778 C139.333333,179.177778 138.111111,178.688889 137.133333,177.711111 C135.422222,176 135.422222,172.822222 137.133333,171.111111 L170.866667,137.377778 C172.577778,135.666667 175.755556,135.666667 177.466667,137.377778 C179.177778,139.088889 179.177778,142.266667 177.466667,143.977778 L143.733333,177.955556 C143,178.933333 141.777778,179.177778 140.555556,179.177778 Z" id="Shape"></path>
                    <path d="M174.533333,84.0888889 C173.311111,84.0888889 172.088889,83.6 171.111111,82.6222222 L136.888889,48.4 C135.177778,46.6888889 135.177778,43.5111111 136.888889,41.8 C138.6,40.0888889 141.777778,40.0888889 143.488889,41.8 L177.711111,76.0222222 C179.422222,77.7333333 179.422222,80.9111111 177.711111,82.6222222 C176.977778,83.6 175.755556,84.0888889 174.533333,84.0888889 Z" id="Shape"></path>
                    <path d="M45.4666667,84.0888889 C44.2444444,84.0888889 43.0222222,83.6 42.0444444,82.6222222 C40.3333333,80.9111111 40.3333333,77.7333333 42.0444444,76.0222222 L76.2666667,41.8 C77.9777778,40.0888889 81.1555556,40.0888889 82.8666667,41.8 C84.5777778,43.5111111 84.5777778,46.6888889 82.8666667,48.4 L48.6444444,82.6222222 C47.6666667,83.6 46.6888889,84.0888889 45.4666667,84.0888889 Z" id="Shape"></path>
                    <path d="M77.4888889,114.644444 L53.5333333,114.644444 C50.8444444,114.644444 48.8888889,112.444444 48.8888889,110 C48.8888889,107.555556 51.0888889,105.355556 53.5333333,105.355556 L77.4888889,105.355556 C80.1777778,105.355556 82.1333333,107.555556 82.1333333,110 C82.1333333,112.444444 79.9333333,114.644444 77.4888889,114.644444 Z" id="Shape"></path>
                    <path d="M166.466667,114.644444 L142.511111,114.644444 C139.822222,114.644444 137.866667,112.444444 137.866667,110 C137.866667,107.555556 140.066667,105.355556 142.511111,105.355556 L166.466667,105.355556 C169.155556,105.355556 171.111111,107.555556 171.111111,110 C171.111111,112.444444 169.155556,114.644444 166.466667,114.644444 Z" id="Shape"></path>
                    <path d="M110,171.111111 C107.311111,171.111111 105.355556,168.911111 105.355556,166.466667 L105.355556,142.511111 C105.355556,139.822222 107.555556,137.866667 110,137.866667 C112.444444,137.866667 114.644444,140.066667 114.644444,142.511111 L114.644444,166.466667 C114.644444,169.155556 112.444444,171.111111 110,171.111111 Z" id="Shape"></path>
                    <path d="M110,82.1333333 C107.311111,82.1333333 105.355556,79.9333333 105.355556,77.4888889 L105.355556,53.5333333 C105.355556,50.8444444 107.555556,48.8888889 110,48.8888889 C112.444444,48.8888889 114.644444,51.0888889 114.644444,53.5333333 L114.644444,77.4888889 C114.644444,79.9333333 112.444444,82.1333333 110,82.1333333 Z" id="Shape"></path>
                </g>
            </g>
        </g>
    </g>
</svg>